{
    "asset" : {
        "generator" : "Khronos glTF Blender I/O v1.2.75",
        "version" : "2.0"
    },
    "scene" : 0,
    "scenes" : [
        {
            "name" : "Scene",
            "nodes" : [
                0,
                1,
                2
            ]
        }
    ],
    "nodes" : [
        {
            "mesh" : 0,
            "name" : "Cube.001",
            "scale" : [
                1.2576446533203125,
                0.7472391724586487,
                1
            ],
            "translation" : [
                0,
                -1.8611807823181152,
                0
            ]
        },
        {
            "mesh" : 1,
            "name" : "Cube.002",
            "scale" : [
                1.2576446533203125,
                0.9784486889839172,
                1
            ],
            "translation" : [
                0,
                -0.09044401347637177,
                0
            ]
        },
        {
            "name" : "Camera",
            "rotation" : [
                0.6654937267303467,
                -0.2125381976366043,
                0.20646357536315918,
                0.6850681900978088
            ],
            "translation" : [
                -5.548557758331299,
                0.14522027969360352,
                9.052346229553223
            ]
        }
    ],
    "materials" : [
        {
            "doubleSided" : true,
            "emissiveFactor" : [
                0,
                0,
                0
            ],
            "name" : "ScreenBorder",
            "pbrMetallicRoughness" : {
                "baseColorFactor" : [
                    0.6618648767471313,
                    0.6618648767471313,
                    0.6618648767471313,
                    1
                ],
                "metallicFactor" : 0,
                "roughnessFactor" : 0.5
            }
        },
        {
            "doubleSided" : true,
            "emissiveFactor" : [
                1,
                1,
                1
            ],
            "emissiveTexture" : {
                "index" : 0,
                "texCoord" : 0
            },
            "name" : "Material.001-screen",
            "pbrMetallicRoughness" : {
                "baseColorTexture" : {
                    "index" : 1,
                    "texCoord" : 0
                },
                "metallicFactor" : 0,
                "roughnessFactor" : 0.5
            }
        }
    ],
    "meshes" : [
        {
            "name" : "Cube.001",
            "primitives" : [
                {
                    "attributes" : {
                        "POSITION" : 0,
                        "NORMAL" : 1,
                        "TEXCOORD_0" : 2
                    },
                    "indices" : 3,
                    "material" : 0
                }
            ]
        },
        {
            "name" : "Cube.002",
            "primitives" : [
                {
                    "attributes" : {
                        "POSITION" : 4,
                        "NORMAL" : 5,
                        "TEXCOORD_0" : 6
                    },
                    "indices" : 7,
                    "material" : 1
                },
                {
                    "attributes" : {
                        "POSITION" : 8,
                        "NORMAL" : 9,
                        "TEXCOORD_0" : 10
                    },
                    "indices" : 11,
                    "material" : 0
                }
            ]
        }
    ],
    "textures" : [
        {
            "source" : 0
        },
        {
            "source" : 1
        }
    ],
    "images" : [
        {
            "bufferView" : 8,
            "mimeType" : "image/jpeg",
            "name" : "Screen Smiley-001-emissive"
        },
        {
            "bufferView" : 9,
            "mimeType" : "image/jpeg",
            "name" : "Screen Smiley-001"
        }
    ],
    "accessors" : [
        {
            "bufferView" : 0,
            "componentType" : 5126,
            "count" : 214,
            "max" : [
                1,
                1,
                1
            ],
            "min" : [
                -1,
                -1,
                -1
            ],
            "type" : "VEC3"
        },
        {
            "bufferView" : 1,
            "componentType" : 5126,
            "count" : 214,
            "type" : "VEC3"
        },
        {
            "bufferView" : 2,
            "componentType" : 5126,
            "count" : 214,
            "type" : "VEC2"
        },
        {
            "bufferView" : 3,
            "componentType" : 5123,
            "count" : 888,
            "type" : "SCALAR"
        },
        {
            "bufferView" : 4,
            "componentType" : 5126,
            "count" : 40,
            "max" : [
                0.737915575504303,
                0.737915575504303,
                0.959600567817688
            ],
            "min" : [
                -0.737915575504303,
                -0.7430132031440735,
                0.959600567817688
            ],
            "type" : "VEC3"
        },
        {
            "bufferView" : 5,
            "componentType" : 5126,
            "count" : 40,
            "type" : "VEC3"
        },
        {
            "bufferView" : 6,
            "componentType" : 5126,
            "count" : 40,
            "type" : "VEC2"
        },
        {
            "bufferView" : 7,
            "componentType" : 5123,
            "count" : 96,
            "type" : "SCALAR"
        },
        {
            "bufferView" : 10,
            "componentType" : 5126,
            "count" : 825,
            "max" : [
                1,
                1,
                1
            ],
            "min" : [
                -1,
                -1,
                -1
            ],
            "type" : "VEC3"
        },
        {
            "bufferView" : 11,
            "componentType" : 5126,
            "count" : 825,
            "type" : "VEC3"
        },
        {
            "bufferView" : 12,
            "componentType" : 5126,
            "count" : 825,
            "type" : "VEC2"
        },
        {
            "bufferView" : 13,
            "componentType" : 5123,
            "count" : 1704,
            "type" : "SCALAR"
        }
    ],
    "bufferViews" : [
        {
            "buffer" : 0,
            "byteLength" : 2568,
            "byteOffset" : 0
        },
        {
            "buffer" : 0,
            "byteLength" : 2568,
            "byteOffset" : 2568
        },
        {
            "buffer" : 0,
            "byteLength" : 1712,
            "byteOffset" : 5136
        },
        {
            "buffer" : 0,
            "byteLength" : 1776,
            "byteOffset" : 6848
        },
        {
            "buffer" : 0,
            "byteLength" : 480,
            "byteOffset" : 8624
        },
        {
            "buffer" : 0,
            "byteLength" : 480,
            "byteOffset" : 9104
        },
        {
            "buffer" : 0,
            "byteLength" : 320,
            "byteOffset" : 9584
        },
        {
            "buffer" : 0,
            "byteLength" : 192,
            "byteOffset" : 9904
        },
        {
            "buffer" : 0,
            "byteLength" : 73325,
            "byteOffset" : 10096
        },
        {
            "buffer" : 0,
            "byteLength" : 87767,
            "byteOffset" : 83424
        },
        {
            "buffer" : 0,
            "byteLength" : 9900,
            "byteOffset" : 171192
        },
        {
            "buffer" : 0,
            "byteLength" : 9900,
            "byteOffset" : 181092
        },
        {
            "buffer" : 0,
            "byteLength" : 6600,
            "byteOffset" : 190992
        },
        {
            "buffer" : 0,
            "byteLength" : 3408,
            "byteOffset" : 197592
        }
    ],
    "buffers" : [
        {
            "byteLength" : 201000,
            "uri" : "data:application/octet-stream;base64,"
        }
    ]
}
